<svg width="16" height="17" viewBox="0 0 16 17" fill="none" xmlns="http://www.w3.org/2000/svg">
<path d="M9.31898 8.23731L15.9518 0.331009C16.063 0.199616 15.9695 0 15.7977 0H13.7813C13.6625 0 13.5488 0.0530624 13.4705 0.144027L8 6.66565L2.52951 0.144027C2.45371 0.0530624 2.34 0 2.21872 0H0.202345C0.030524 0 -0.0629672 0.199616 0.0482113 0.331009L6.68102 8.23731L0.0482113 16.1436C0.0233063 16.1729 0.00732877 16.2087 0.00217506 16.2468C-0.00297865 16.2849 0.0029079 16.3237 0.0191365 16.3585C0.035365 16.3934 0.0612539 16.4229 0.093729 16.4434C0.126204 16.464 0.163901 16.4748 0.202345 16.4746H2.21872C2.33748 16.4746 2.45118 16.4216 2.52951 16.3306L8 9.80897L13.4705 16.3306C13.5463 16.4216 13.66 16.4746 13.7813 16.4746H15.7977C15.9695 16.4746 16.063 16.275 15.9518 16.1436L9.31898 8.23731Z" fill="#A71618"/>
</svg>
